# xmcd
#
# Track frame offsets: 
#        150
#        14802
#        30150
#        40239
#        52125
#        64630
#        76327
#        86064
#        97408
#        107509
#        117999
#        128251
#
# Disc length: 1890 seconds
#
# Revision: 2
# Processed by: cddbd v1.5.1PL0 Copyright (c) Steve Scherf et al.
# Submitted via: ExactAudioCopy v0.95a5
#
DISCID=9807600c
DTITLE=Jeannie C. Riley - Harper Valley PTA
DYEAR=1985
DGENRE=Country
TTITLE0=Harper Valley PTA
TTITLE1=Yearbooks and Yesterdays
TTITLE2=Things go better with love
TTITLE3=Country Girl
TTITLE4=The generation gap
TTITLE5=The back side of Dallas
TTITLE6=The girl most likely
TTITLE7=Duty not Desire
TTITLE8=He made a woman out of me
TTITLE9=Help me make it through the night
TTITLE10=Macon Georgia bad girl
TTITLE11=Will the real Jesus please stand up
EXTD=(c)1985 Charly Holdings Inc./Topline Records Ltd. UK\nKatalog: TO
EXTD=P 130
EXTT0=
EXTT1=
EXTT2=
EXTT3=
EXTT4=
EXTT5=
EXTT6=
EXTT7=
EXTT8=
EXTT9=
EXTT10=
EXTT11=
PLAYORDER=
